<svg width="24" height="24" viewBox="0 0 24 24" fill="none" xmlns="http://www.w3.org/2000/svg">
<path fill-rule="evenodd" clip-rule="evenodd" d="M12 24C18.6274 24 24 18.6274 24 12C24 5.37258 18.6274 0 12 0C5.37258 0 0 5.37258 0 12C0 18.6274 5.37258 24 12 24Z" fill="#ED1164"/>
<path fill-rule="evenodd" clip-rule="evenodd" d="M11.9987 5.33325C11.5385 5.33325 11.1654 5.70635 11.1654 6.16659V17.8333C11.1654 18.2935 11.5385 18.6666 11.9987 18.6666C12.4589 18.6666 12.832 18.2935 12.832 17.8333V6.16659C12.832 5.70635 12.4589 5.33325 11.9987 5.33325Z" fill="white"/>
<path fill-rule="evenodd" clip-rule="evenodd" d="M18.666 11.9998C18.666 11.5396 18.2929 11.1665 17.8327 11.1665H6.16602C5.70578 11.1665 5.33268 11.5396 5.33268 11.9998C5.33268 12.4601 5.70578 12.8332 6.16602 12.8332H17.8327C18.2929 12.8332 18.666 12.4601 18.666 11.9998Z" fill="white"/>
</svg>