<svg width="26" height="26" viewBox="0 0 26 26" fill="none" xmlns="http://www.w3.org/2000/svg">
<path fill-rule="evenodd" clip-rule="evenodd" d="M13 25C19.6274 25 25 19.6274 25 13C25 6.37258 19.6274 1 13 1C6.37258 1 1 6.37258 1 13C1 19.6274 6.37258 25 13 25Z" stroke="#ED1164"/>
<path d="M18.7994 12.6471H7.48572C7.11753 12.6471 6.81906 12.9456 6.81906 13.3138C6.81906 13.682 7.11753 13.9804 7.48572 13.9804H18.7994C19.1676 13.9804 19.4661 13.682 19.4661 13.3138C19.4661 12.9456 19.1676 12.6471 18.7994 12.6471Z" fill="#ED1164"/>
<mask id="mask0" style="mask-type:alpha" maskUnits="userSpaceOnUse" x="6" y="6" width="14" height="14">
<path fill-rule="evenodd" clip-rule="evenodd" d="M12.4759 12.6471L12.4759 7.65692C12.4759 7.28873 12.7744 6.99025 13.1426 6.99025C13.5108 6.99025 13.8092 7.28873 13.8092 7.65692L13.8092 12.6471L18.7994 12.6471C19.1676 12.6471 19.4661 12.9456 19.4661 13.3138C19.4661 13.682 19.1676 13.9804 18.7994 13.9804L13.8092 13.9804L13.8092 18.9706C13.8092 19.3388 13.5108 19.6373 13.1426 19.6373C12.7744 19.6373 12.4759 19.3388 12.4759 18.9706L12.4759 13.9804L7.48572 13.9804C7.11753 13.9804 6.81906 13.682 6.81906 13.3138C6.81906 12.9456 7.11753 12.6471 7.48572 12.6471L12.4759 12.6471Z" fill="white"/>
</mask>
<g mask="url(#mask0)">
</g>
</svg>